<svg xmlns="http://www.w3.org/2000/svg" style="border: 0 !important; clip: rect(0 0 0 0) !important; height: 1px !important; margin: -1px !important; overflow: hidden !important; padding: 0 !important; position: absolute !important; width: 1px !important;" class="root-svg-symbols-element">
    <symbol id="coding" viewBox="0 0 512 512">
      <g fill="#FFF"><path d="M472.178,34.62H39.822C17.864,34.62,0,52.485,0,74.442c0,17.955,0,345.234,0,363.115 c0,21.958,17.864,39.822,39.822,39.822h432.356c21.958,0,39.822-17.864,39.822-39.822c0-17.89,0-345.165,0-363.115 C512,52.485,494.136,34.62,472.178,34.62z M477.867,437.557c0,3.137-2.552,5.689-5.689,5.689H39.822 c-3.137,0-5.689-2.552-5.689-5.689V153.839h443.733V437.557z M477.867,119.706H34.133V74.442c0-3.137,2.552-5.689,5.689-5.689 h432.356c3.137,0,5.689,2.552,5.689,5.689V119.706z"/><circle cx="71.805" cy="94.231" r="12.836"/><circle cx="112.959" cy="94.231" r="12.836"/><circle cx="154.112" cy="94.231" r="12.836"/><path d="M141.888,375.42c15.923,15.924,40.067-8.205,24.136-24.136l-53.379-53.38l53.379-53.379 c15.947-15.947-8.173-40.1-24.136-24.136l-65.446,65.446c-6.665,6.665-6.665,17.471,0,24.136L141.888,375.42z"/><path d="M370.111,375.42l65.447-65.447c6.661-6.659,6.665-17.472,0-24.136l-65.447-65.447 c-15.944-15.945-40.104,8.169-24.136,24.136l53.38,53.379l-53.38,53.379C329.729,367.53,354.487,391.043,370.111,375.42z"/><path d="M225.787,391.681l97.693-169.208c11.297-19.565-18.291-36.589-29.561-17.067l-97.693,169.208 C184.856,394.309,214.616,411.032,225.787,391.681z"/></g>
    </symbol>
    <symbol id="css" viewBox="0 0 470.699 470.699">
      <path d="M426.981,0H43.701C34.52,0,27.632,7.769,28.442,16.949L63.45,409.254c0.811,9.173,8.745,18.774,17.644,21.253 l138.006,38.335c8.887,2.463,23.413,2.479,32.313,0.032l138.177-38.281c8.901-2.472,16.835-11.986,17.645-21.175l35.023-392.469 C443.068,7.769,436.209,0,426.981,0z M360.51,141.611c-0.006,0.06-0.053,0.107-0.112,0.117c-0.06,0.01-0.118-0.021-0.144-0.077 L252.13,185.96c-1.54,0.631-2.418,2.264-2.098,3.897c0.322,1.633,1.754,2.811,3.419,2.811h84.103c4.474,0,8.736,1.9,11.728,5.227 c2.991,3.327,4.429,7.768,3.954,12.216l-13.141,123.273c-0.645,6.048-4.709,11.186-10.447,13.205l-89.269,31.41 c-3.362,1.184-7.027,1.193-10.397,0.025l-88.852-30.778c-5.773-2-9.871-7.153-10.52-13.228l-5.957-55.828 c-0.313-2.931,0.634-5.857,2.604-8.048c1.971-2.192,4.779-3.444,7.727-3.444h24.725c5.313,0,9.769,4.007,10.331,9.289l3.655,34.316 l61.521,21.385l61.803-21.58l7.559-71.17H129.835c-5.297,0-9.746-3.985-10.327-9.25l-3.327-30.164 c-0.508-4.601,2.088-8.982,6.366-10.745l111.837-46.109c1.269-0.523,1.99-1.868,1.724-3.214c-0.267-1.345-1.446-2.314-2.817-2.314 H115.542c-3.545,0-6.518-2.677-6.888-6.201l-3.406-32.421c-0.205-1.951,0.428-3.898,1.741-5.357 c1.313-1.458,3.184-2.291,5.146-2.291h246.379c1.973,0,3.852,0.842,5.166,2.313c1.314,1.472,1.938,3.434,1.715,5.394L360.51,141.611 z" fill="#FFF"/>
    </symbol>
    <symbol id="fb" viewBox="0 0 96.124 96.123">
      <path d="M72.089,0.02L59.624,0C45.62,0,36.57,9.285,36.57,23.656v10.907H24.037c-1.083,0-1.96,0.878-1.96,1.961v15.803 c0,1.083,0.878,1.96,1.96,1.96h12.533v39.876c0,1.083,0.877,1.96,1.96,1.96h16.352c1.083,0,1.96-0.878,1.96-1.96V54.287h14.654 c1.083,0,1.96-0.877,1.96-1.96l0.006-15.803c0-0.52-0.207-1.018-0.574-1.386c-0.367-0.368-0.867-0.575-1.387-0.575H56.842v-9.246 c0-4.444,1.059-6.7,6.848-6.7l8.397-0.003c1.082,0,1.959-0.878,1.959-1.96V1.98C74.046,0.899,73.17,0.022,72.089,0.02z" fill="#FFF"/>
    </symbol>
    <symbol id="github" viewBox="0 0 90 90">
      <path id="Github__x28_alt_x29_" d="M65.709,10.5c1.17,2.657,1.928,7.07,0.797,10.301c4.625,3.949,6.215,13.549,3.982,21.394 C77.08,42.698,84.932,41.953,90,43.976c-4.738-0.609-11.209-1.804-17.32-1.388c-1.158,0.079-2.873-0.044-2.789,1.585 c7.074,0.555,14.104,1.16,19.912,2.973c-5.761-0.941-12.754-2.375-19.912-2.574c-2.957,5.835-8.908,8.703-17.123,9.307 c0.883,1.922,2.574,2.653,2.987,5.744c0.616,4.618-0.964,11.381,0.595,14.459c0.748,1.475,1.967,1.514,2.789,2.775 c-2.012,2.381-7-0.268-7.568-2.775c-0.973-4.295,1.482-10.953-1.192-13.865c0.188,4.685-1.108,11.264,0.199,15.449 c0.515,1.646,2.002,2.281,1.593,3.766c-9.352,0.949-5.443-12.104-6.972-19.81c-1.411,0.101-0.791,2.113-0.796,2.972 c-0.04,7.524,1.54,17.844-6.57,16.838c-0.237-1.582,1.088-2.119,1.593-3.563c1.479-4.233-0.277-10.542,0.401-15.651 c-3.095,2.334,0.325,10.48-1.593,14.657c-1.105,2.404-4.666,3.45-7.367,2.377c0.352-1.79,2.2-1.501,2.984-3.169 c1.096-2.324,0.008-5.674,0.399-9.111c-5.729,1.144-10.173-0.166-12.348-3.764c-0.973-1.615-1.214-3.52-2.39-4.951 c-1.17-1.432-3.04-1.625-3.582-3.563c7.095-1.708,7.367,7.302,13.739,7.524c1.954,0.071,2.97-0.563,4.778-0.988 c0.506-2.272,1.589-3.967,3.186-5.153c-7.929-1.085-14.477-3.554-17.522-9.504c-7.208,0.354-13.804,1.317-19.913,2.771 c5.545-2.014,12.384-2.736,19.715-2.973c-0.432-2.596-4.219-1.882-6.57-1.782C8.973,42.781,3.473,43.324,0,43.976 c5.034-1.795,12.098-1.571,18.918-1.585c-2.086-6.54-1.363-16.929,3.186-20.798C20.815,18.344,21.215,13.03,22.9,10.5 c5.079,0.228,8.159,2.443,11.35,4.557c3.957-1.125,8.118-1.685,13.54-1.387c2.28,0.126,4.651,1.151,6.369,0.989 c1.685-0.158,3.542-2.049,5.178-2.771C61.468,10.947,63.271,10.588,65.709,10.5z" fill="#FFF"/>
    </symbol>
    <symbol id="google" viewBox="0 0 96.828 96.827">
      <g fill="#FFF"><path d="M62.617,0H39.525c-10.29,0-17.413,2.256-23.824,7.552c-5.042,4.35-8.051,10.672-8.051,16.912 c0,9.614,7.33,19.831,20.913,19.831c1.306,0,2.752-0.134,4.028-0.253l-0.188,0.457c-0.546,1.308-1.063,2.542-1.063,4.468 c0,3.75,1.809,6.063,3.558,8.298l0.22,0.283l-0.391,0.027c-5.609,0.384-16.049,1.1-23.675,5.787 c-9.007,5.355-9.707,13.145-9.707,15.404c0,8.988,8.376,18.06,27.09,18.06c21.76,0,33.146-12.005,33.146-23.863 c0.002-8.771-5.141-13.101-10.6-17.698l-4.605-3.582c-1.423-1.179-3.195-2.646-3.195-5.364c0-2.672,1.772-4.436,3.336-5.992 l0.163-0.165c4.973-3.917,10.609-8.358,10.609-17.964c0-9.658-6.035-14.649-8.937-17.048h7.663c0.094,0,0.188-0.026,0.266-0.077 l6.601-4.15c0.188-0.119,0.276-0.348,0.214-0.562C63.037,0.147,62.839,0,62.617,0z M34.614,91.535 c-13.264,0-22.176-6.195-22.176-15.416c0-6.021,3.645-10.396,10.824-12.997c5.749-1.935,13.17-2.031,13.244-2.031 c1.257,0,1.889,0,2.893,0.126c9.281,6.605,13.743,10.073,13.743,16.678C53.141,86.309,46.041,91.535,34.614,91.535z M34.489,40.756c-11.132,0-15.752-14.633-15.752-22.468c0-3.984,0.906-7.042,2.77-9.351c2.023-2.531,5.487-4.166,8.825-4.166 c10.221,0,15.873,13.738,15.873,23.233c0,1.498,0,6.055-3.148,9.22C40.94,39.337,37.497,40.756,34.489,40.756z"/><path d="M94.982,45.223H82.814V33.098c0-0.276-0.225-0.5-0.5-0.5H77.08c-0.276,0-0.5,0.224-0.5,0.5v12.125H64.473 c-0.276,0-0.5,0.224-0.5,0.5v5.304c0,0.275,0.224,0.5,0.5,0.5H76.58V63.73c0,0.275,0.224,0.5,0.5,0.5h5.234 c0.275,0,0.5-0.225,0.5-0.5V51.525h12.168c0.276,0,0.5-0.223,0.5-0.5v-5.302C95.482,45.446,95.259,45.223,94.982,45.223z"/></g>
    </symbol>
    <symbol id="smartphone" viewBox="0 0 35 35">
      <path d="M25.302,0H9.698c-1.3,0-2.364,1.063-2.364,2.364v30.271C7.334,33.936,8.398,35,9.698,35h15.604 c1.3,0,2.364-1.062,2.364-2.364V2.364C27.666,1.063,26.602,0,25.302,0z M15.004,1.704h4.992c0.158,0,0.286,0.128,0.286,0.287 c0,0.158-0.128,0.286-0.286,0.286h-4.992c-0.158,0-0.286-0.128-0.286-0.286C14.718,1.832,14.846,1.704,15.004,1.704z M17.5,33.818 c-0.653,0-1.182-0.529-1.182-1.183s0.529-1.182,1.182-1.182s1.182,0.528,1.182,1.182S18.153,33.818,17.5,33.818z M26.021,30.625 H8.979V3.749h17.042V30.625z" fill="#FFF"/>
    </symbol>
    <symbol id="telegram" viewBox="0 0 300 300">
      <g id="XMLID_496_"><path id="XMLID_497_" d="M5.299,144.645l69.126,25.8l26.756,86.047c1.712,5.511,8.451,7.548,12.924,3.891l38.532-31.412 c4.039-3.291,9.792-3.455,14.013-0.391l69.498,50.457c4.785,3.478,11.564,0.856,12.764-4.926L299.823,29.22 c1.31-6.316-4.896-11.585-10.91-9.259L5.218,129.402C-1.783,132.102-1.722,142.014,5.299,144.645z M96.869,156.711l135.098-83.207 c2.428-1.491,4.926,1.792,2.841,3.726L123.313,180.87c-3.919,3.648-6.447,8.53-7.163,13.829l-3.798,28.146 c-0.503,3.758-5.782,4.131-6.819,0.494l-14.607-51.325C89.253,166.16,91.691,159.907,96.869,156.711z" fill="#fff"/></g>
    </symbol>
    <symbol id="vk" viewBox="0 0 304.36 304.36">
      <g id="XMLID_1_"><path id="XMLID_807_" d="M261.945,175.576c10.096,9.857,20.752,19.131,29.807,29.982 c4,4.822,7.787,9.798,10.684,15.394c4.105,7.955,0.387,16.709-6.746,17.184l-44.34-0.02c-11.436,0.949-20.559-3.655-28.23-11.474 c-6.139-6.253-11.824-12.908-17.727-19.372c-2.42-2.642-4.953-5.128-7.979-7.093c-6.053-3.929-11.307-2.726-14.766,3.587 c-3.523,6.421-4.322,13.531-4.668,20.687c-0.475,10.441-3.631,13.186-14.119,13.664c-22.414,1.057-43.686-2.334-63.447-13.641 c-17.422-9.968-30.932-24.04-42.691-39.971C34.828,153.482,17.295,119.395,1.537,84.353C-2.01,76.458,0.584,72.22,9.295,72.07 c14.465-0.281,28.928-0.261,43.41-0.02c5.879,0.086,9.771,3.458,12.041,9.012c7.826,19.243,17.402,37.551,29.422,54.521 c3.201,4.518,6.465,9.036,11.113,12.216c5.142,3.521,9.057,2.354,11.476-3.374c1.535-3.632,2.207-7.544,2.553-11.434 c1.146-13.383,1.297-26.743-0.713-40.079c-1.234-8.323-5.922-13.711-14.227-15.286c-4.238-0.803-3.607-2.38-1.555-4.799 c3.564-4.172,6.916-6.769,13.598-6.769h50.111c7.889,1.557,9.641,5.101,10.721,13.039l0.043,55.663 c-0.086,3.073,1.535,12.192,7.07,14.226c4.43,1.448,7.35-2.096,10.008-4.905c11.998-12.734,20.561-27.783,28.211-43.366 c3.395-6.852,6.314-13.968,9.143-21.078c2.096-5.276,5.385-7.872,11.328-7.757l48.229,0.043c1.43,0,2.877,0.021,4.262,0.258 c8.127,1.385,10.354,4.881,7.844,12.817c-3.955,12.451-11.65,22.827-19.174,33.251c-8.043,11.129-16.645,21.877-24.621,33.072 C252.26,161.544,252.842,166.697,261.945,175.576L261.945,175.576z M261.945,175.576" fill="#FFF" fill-rule="evenodd" clip-rule="evenodd"/></g>
    </symbol></svg>